<svg width="14" height="16" viewBox="0 0 14 16" fill="none" xmlns="http://www.w3.org/2000/svg">
<path fill-rule="evenodd" clip-rule="evenodd" d="M4.21126 2.0792L4.05735 2.99567C3.39777 3.03095 2.73823 3.0819 2.07872 3.14851L0.651448 3.28844C0.376622 3.31538 0.175674 3.56001 0.202617 3.83484C0.229561 4.10967 0.474194 4.31061 0.74902 4.28367L2.17703 4.14367L2.17849 4.14352C3.54789 4.0052 4.91712 3.93605 6.28626 3.93605C8.60735 3.93605 10.9359 4.0542 13.251 4.28362C13.5258 4.31085 13.7706 4.11016 13.7979 3.83536C13.8251 3.56056 13.6244 3.31572 13.3496 3.28849C12.2184 3.17638 11.0838 3.09047 9.94814 3.03154C9.94699 3.01959 9.9454 3.0076 9.94337 2.99558L9.78963 2.0871L9.7832 2.04734C9.73697 1.76029 9.66901 1.33825 9.38876 1.0153C9.06585 0.643183 8.56897 0.5 7.91737 0.5H6.08336C5.43925 0.5 4.94197 0.632662 4.61722 1.00092C4.33747 1.31815 4.26778 1.7385 4.21936 2.03055L4.21126 2.0792ZM5.19743 2.24496L5.07843 2.95356C5.48103 2.94188 5.88364 2.93605 6.28626 2.93605C7.16613 2.93605 8.04691 2.95278 8.9275 2.98587L8.80288 2.24947C8.74462 1.89212 8.70701 1.75544 8.63348 1.67071C8.58889 1.61932 8.44878 1.50001 7.91737 1.50001H6.08336C5.54446 1.50001 5.40824 1.61584 5.36724 1.66234C5.29712 1.74185 5.26015 1.87259 5.19743 2.24496Z" fill="#365069"/>
<path d="M2.70409 5.96575C2.6863 5.69018 2.44849 5.4812 2.17292 5.49899C1.89735 5.51678 1.68837 5.75459 1.70616 6.03016L2.16116 13.0792L2.16223 13.0945C2.18071 13.3584 2.20089 13.6466 2.25484 13.9145C2.31069 14.1918 2.40877 14.4826 2.60659 14.7402C3.02021 15.2787 3.72626 15.5 4.75314 15.5H9.24716C10.274 15.5 10.9801 15.2787 11.3937 14.7402C11.5915 14.4826 11.6896 14.1918 11.7455 13.9145C11.7994 13.6466 11.8196 13.3584 11.8381 13.0945L11.839 13.0819L11.8391 13.0792L12.2941 6.03016C12.3119 5.75459 12.103 5.51678 11.8274 5.49899C11.5518 5.4812 11.314 5.69018 11.2962 5.96575L10.8414 13.012L10.8413 13.0134C10.8216 13.295 10.8048 13.5203 10.7651 13.7171C10.7265 13.909 10.6723 14.0377 10.6006 14.131C10.4752 14.2943 10.1733 14.5 9.24716 14.5H4.75314C3.82701 14.5 3.52505 14.2943 3.39966 14.131C3.32798 14.0377 3.27382 13.909 3.23516 13.7171C3.19554 13.5203 3.17874 13.295 3.159 13.0134L2.70409 5.96575Z" fill="#365069"/>
<path d="M5.33112 11.1501C5.33112 10.8739 5.55498 10.6501 5.83112 10.6501H8.16213C8.43828 10.6501 8.66214 10.8739 8.66214 11.1501C8.66214 11.4262 8.43828 11.6501 8.16213 11.6501H5.83112C5.55498 11.6501 5.33112 11.4262 5.33112 11.1501Z" fill="#365069"/>
<path d="M5.25006 7.85002C4.97392 7.85002 4.75006 8.07387 4.75006 8.35002C4.75006 8.62616 4.97392 8.85002 5.25006 8.85002H8.75008C9.02623 8.85002 9.25008 8.62616 9.25008 8.35002C9.25008 8.07387 9.02623 7.85002 8.75008 7.85002H5.25006Z" fill="#365069"/>
</svg>
